<svg width="375" height="375" viewBox="0 0 375 375" fill="none" xmlns="http://www.w3.org/2000/svg">
<g clip-path="url(#clip0_10524_9222)">
<g opacity="0.2" filter="url(#filter0_d_10524_9222)">
<mask id="path-1-inside-1_10524_9222" fill="white">
<path fill-rule="evenodd" clip-rule="evenodd" d="M46.875 0H0V46.875H46.875V0Z"/>
<path fill-rule="evenodd" clip-rule="evenodd" d="M46.875 187.5H0V234.375H46.875V187.5Z"/>
<path fill-rule="evenodd" clip-rule="evenodd" d="M234.375 0H187.5V46.875H234.375V0Z"/>
<path fill-rule="evenodd" clip-rule="evenodd" d="M234.375 187.5H187.5V234.375H234.375V187.5Z"/>
<path fill-rule="evenodd" clip-rule="evenodd" d="M46.875 93.75H0V140.625H46.875V93.75Z"/>
<path fill-rule="evenodd" clip-rule="evenodd" d="M46.875 281.25H0V328.125H46.875V281.25Z"/>
<path fill-rule="evenodd" clip-rule="evenodd" d="M234.375 93.75H187.5V140.625H234.375V93.75Z"/>
<path fill-rule="evenodd" clip-rule="evenodd" d="M234.375 281.25H187.5V328.125H234.375V281.25Z"/>
<path fill-rule="evenodd" clip-rule="evenodd" d="M140.625 0H93.75V46.875H140.625V0Z"/>
<path fill-rule="evenodd" clip-rule="evenodd" d="M140.625 187.5H93.75V234.375H140.625V187.5Z"/>
<path fill-rule="evenodd" clip-rule="evenodd" d="M328.125 0H281.25V46.875H328.125V0Z"/>
<path fill-rule="evenodd" clip-rule="evenodd" d="M328.125 187.5H281.25V234.375H328.125V187.5Z"/>
<path fill-rule="evenodd" clip-rule="evenodd" d="M140.625 93.75H93.75V140.625H140.625V93.75Z"/>
<path fill-rule="evenodd" clip-rule="evenodd" d="M140.625 281.25H93.75V328.125H140.625V281.25Z"/>
<path fill-rule="evenodd" clip-rule="evenodd" d="M328.125 93.75H281.25V140.625H328.125V93.75Z"/>
<path fill-rule="evenodd" clip-rule="evenodd" d="M328.125 281.25H281.25V328.125H328.125V281.25Z"/>
<path fill-rule="evenodd" clip-rule="evenodd" d="M46.875 46.875H93.75V93.75H46.875V46.875Z"/>
<path fill-rule="evenodd" clip-rule="evenodd" d="M46.875 234.375H93.75V281.25H46.875V234.375Z"/>
<path fill-rule="evenodd" clip-rule="evenodd" d="M234.375 46.875H281.25V93.75H234.375V46.875Z"/>
<path fill-rule="evenodd" clip-rule="evenodd" d="M234.375 234.375H281.25V281.25H234.375V234.375Z"/>
<path fill-rule="evenodd" clip-rule="evenodd" d="M46.875 140.625H93.75V187.5H46.875V140.625Z"/>
<path fill-rule="evenodd" clip-rule="evenodd" d="M46.875 328.125H93.75V375H46.875V328.125Z"/>
<path fill-rule="evenodd" clip-rule="evenodd" d="M234.375 140.625H281.25V187.5H234.375V140.625Z"/>
<path fill-rule="evenodd" clip-rule="evenodd" d="M234.375 328.125H281.25V375H234.375V328.125Z"/>
<path fill-rule="evenodd" clip-rule="evenodd" d="M140.625 46.875H187.5V93.75H140.625V46.875Z"/>
<path fill-rule="evenodd" clip-rule="evenodd" d="M140.625 234.375H187.5V281.25H140.625V234.375Z"/>
<path fill-rule="evenodd" clip-rule="evenodd" d="M328.125 46.875H375V93.75H328.125V46.875Z"/>
<path fill-rule="evenodd" clip-rule="evenodd" d="M328.125 234.375H375V281.25H328.125V234.375Z"/>
<path fill-rule="evenodd" clip-rule="evenodd" d="M140.625 140.625H187.5V187.5H140.625V140.625Z"/>
<path fill-rule="evenodd" clip-rule="evenodd" d="M140.625 328.125H187.5V375H140.625V328.125Z"/>
<path fill-rule="evenodd" clip-rule="evenodd" d="M328.125 140.625H375V187.5H328.125V140.625Z"/>
<path fill-rule="evenodd" clip-rule="evenodd" d="M328.125 328.125H375V375H328.125V328.125Z"/>
<path fill-rule="evenodd" clip-rule="evenodd" d="M93.75 0H46.875V46.875H93.75V0Z"/>
<path fill-rule="evenodd" clip-rule="evenodd" d="M93.75 187.5H46.875V234.375H93.75V187.5Z"/>
<path fill-rule="evenodd" clip-rule="evenodd" d="M281.25 0H234.375V46.875H281.25V0Z"/>
<path fill-rule="evenodd" clip-rule="evenodd" d="M281.25 187.5H234.375V234.375H281.25V187.5Z"/>
<path fill-rule="evenodd" clip-rule="evenodd" d="M93.75 93.75H46.875V140.625H93.75V93.75Z"/>
<path fill-rule="evenodd" clip-rule="evenodd" d="M93.75 281.25H46.875V328.125H93.75V281.25Z"/>
<path fill-rule="evenodd" clip-rule="evenodd" d="M281.25 93.75H234.375V140.625H281.25V93.75Z"/>
<path fill-rule="evenodd" clip-rule="evenodd" d="M281.25 281.25H234.375V328.125H281.25V281.25Z"/>
<path fill-rule="evenodd" clip-rule="evenodd" d="M187.5 0H140.625V46.875H187.5V0Z"/>
<path fill-rule="evenodd" clip-rule="evenodd" d="M187.5 187.5H140.625V234.375H187.5V187.5Z"/>
<path fill-rule="evenodd" clip-rule="evenodd" d="M375 0H328.125V46.875H375V0Z"/>
<path fill-rule="evenodd" clip-rule="evenodd" d="M375 187.5H328.125V234.375H375V187.5Z"/>
<path fill-rule="evenodd" clip-rule="evenodd" d="M187.5 93.75H140.625V140.625H187.5V93.75Z"/>
<path fill-rule="evenodd" clip-rule="evenodd" d="M187.5 281.25H140.625V328.125H187.5V281.25Z"/>
<path fill-rule="evenodd" clip-rule="evenodd" d="M375 93.75H328.125V140.625H375V93.75Z"/>
<path fill-rule="evenodd" clip-rule="evenodd" d="M375 281.25H328.125V328.125H375V281.25Z"/>
<path fill-rule="evenodd" clip-rule="evenodd" d="M0 46.875H46.875V93.75H0V46.875Z"/>
<path fill-rule="evenodd" clip-rule="evenodd" d="M0 234.375H46.875V281.25H0V234.375Z"/>
<path fill-rule="evenodd" clip-rule="evenodd" d="M187.5 46.875H234.375V93.75H187.5V46.875Z"/>
<path fill-rule="evenodd" clip-rule="evenodd" d="M187.5 234.375H234.375V281.25H187.5V234.375Z"/>
<path fill-rule="evenodd" clip-rule="evenodd" d="M0 140.625H46.875V187.5H0V140.625Z"/>
<path fill-rule="evenodd" clip-rule="evenodd" d="M0 328.125H46.875V375H0V328.125Z"/>
<path fill-rule="evenodd" clip-rule="evenodd" d="M187.5 140.625H234.375V187.5H187.5V140.625Z"/>
<path fill-rule="evenodd" clip-rule="evenodd" d="M187.5 328.125H234.375V375H187.5V328.125Z"/>
<path fill-rule="evenodd" clip-rule="evenodd" d="M93.75 46.875H140.625V93.75H93.75V46.875Z"/>
<path fill-rule="evenodd" clip-rule="evenodd" d="M93.75 234.375H140.625V281.25H93.75V234.375Z"/>
<path fill-rule="evenodd" clip-rule="evenodd" d="M281.25 46.875H328.125V93.75H281.25V46.875Z"/>
<path fill-rule="evenodd" clip-rule="evenodd" d="M281.25 234.375H328.125V281.25H281.25V234.375Z"/>
<path fill-rule="evenodd" clip-rule="evenodd" d="M93.75 140.625H140.625V187.5H93.75V140.625Z"/>
<path fill-rule="evenodd" clip-rule="evenodd" d="M93.75 328.125H140.625V375H93.75V328.125Z"/>
<path fill-rule="evenodd" clip-rule="evenodd" d="M281.25 140.625H328.125V187.5H281.25V140.625Z"/>
<path fill-rule="evenodd" clip-rule="evenodd" d="M281.25 328.125H328.125V375H281.25V328.125Z"/>
</mask>
<path fill-rule="evenodd" clip-rule="evenodd" d="M46.875 0H0V46.875H46.875V0Z" fill="white"/>
<path fill-rule="evenodd" clip-rule="evenodd" d="M46.875 187.5H0V234.375H46.875V187.5Z" fill="white"/>
<path fill-rule="evenodd" clip-rule="evenodd" d="M234.375 0H187.5V46.875H234.375V0Z" fill="white"/>
<path fill-rule="evenodd" clip-rule="evenodd" d="M234.375 187.5H187.5V234.375H234.375V187.5Z" fill="white"/>
<path fill-rule="evenodd" clip-rule="evenodd" d="M46.875 93.75H0V140.625H46.875V93.75Z" fill="white"/>
<path fill-rule="evenodd" clip-rule="evenodd" d="M46.875 281.25H0V328.125H46.875V281.25Z" fill="white"/>
<path fill-rule="evenodd" clip-rule="evenodd" d="M234.375 93.75H187.5V140.625H234.375V93.75Z" fill="white"/>
<path fill-rule="evenodd" clip-rule="evenodd" d="M234.375 281.25H187.5V328.125H234.375V281.25Z" fill="white"/>
<path fill-rule="evenodd" clip-rule="evenodd" d="M140.625 0H93.75V46.875H140.625V0Z" fill="white"/>
<path fill-rule="evenodd" clip-rule="evenodd" d="M140.625 187.5H93.75V234.375H140.625V187.5Z" fill="white"/>
<path fill-rule="evenodd" clip-rule="evenodd" d="M328.125 0H281.25V46.875H328.125V0Z" fill="white"/>
<path fill-rule="evenodd" clip-rule="evenodd" d="M328.125 187.5H281.25V234.375H328.125V187.5Z" fill="white"/>
<path fill-rule="evenodd" clip-rule="evenodd" d="M140.625 93.75H93.75V140.625H140.625V93.75Z" fill="white"/>
<path fill-rule="evenodd" clip-rule="evenodd" d="M140.625 281.25H93.75V328.125H140.625V281.25Z" fill="white"/>
<path fill-rule="evenodd" clip-rule="evenodd" d="M328.125 93.75H281.25V140.625H328.125V93.75Z" fill="white"/>
<path fill-rule="evenodd" clip-rule="evenodd" d="M328.125 281.25H281.25V328.125H328.125V281.25Z" fill="white"/>
<path fill-rule="evenodd" clip-rule="evenodd" d="M46.875 46.875H93.75V93.75H46.875V46.875Z" fill="white"/>
<path fill-rule="evenodd" clip-rule="evenodd" d="M46.875 234.375H93.75V281.25H46.875V234.375Z" fill="white"/>
<path fill-rule="evenodd" clip-rule="evenodd" d="M234.375 46.875H281.25V93.75H234.375V46.875Z" fill="white"/>
<path fill-rule="evenodd" clip-rule="evenodd" d="M234.375 234.375H281.25V281.25H234.375V234.375Z" fill="white"/>
<path fill-rule="evenodd" clip-rule="evenodd" d="M46.875 140.625H93.75V187.5H46.875V140.625Z" fill="white"/>
<path fill-rule="evenodd" clip-rule="evenodd" d="M46.875 328.125H93.75V375H46.875V328.125Z" fill="white"/>
<path fill-rule="evenodd" clip-rule="evenodd" d="M234.375 140.625H281.25V187.5H234.375V140.625Z" fill="white"/>
<path fill-rule="evenodd" clip-rule="evenodd" d="M234.375 328.125H281.25V375H234.375V328.125Z" fill="white"/>
<path fill-rule="evenodd" clip-rule="evenodd" d="M140.625 46.875H187.5V93.75H140.625V46.875Z" fill="white"/>
<path fill-rule="evenodd" clip-rule="evenodd" d="M140.625 234.375H187.5V281.25H140.625V234.375Z" fill="white"/>
<path fill-rule="evenodd" clip-rule="evenodd" d="M328.125 46.875H375V93.75H328.125V46.875Z" fill="white"/>
<path fill-rule="evenodd" clip-rule="evenodd" d="M328.125 234.375H375V281.25H328.125V234.375Z" fill="white"/>
<path fill-rule="evenodd" clip-rule="evenodd" d="M140.625 140.625H187.5V187.5H140.625V140.625Z" fill="white"/>
<path fill-rule="evenodd" clip-rule="evenodd" d="M140.625 328.125H187.5V375H140.625V328.125Z" fill="white"/>
<path fill-rule="evenodd" clip-rule="evenodd" d="M328.125 140.625H375V187.5H328.125V140.625Z" fill="white"/>
<path fill-rule="evenodd" clip-rule="evenodd" d="M328.125 328.125H375V375H328.125V328.125Z" fill="white"/>
<path fill-rule="evenodd" clip-rule="evenodd" d="M93.75 0H46.875V46.875H93.75V0Z" fill="black"/>
<path fill-rule="evenodd" clip-rule="evenodd" d="M93.75 187.5H46.875V234.375H93.75V187.5Z" fill="black"/>
<path fill-rule="evenodd" clip-rule="evenodd" d="M281.25 0H234.375V46.875H281.25V0Z" fill="black"/>
<path fill-rule="evenodd" clip-rule="evenodd" d="M281.25 187.5H234.375V234.375H281.25V187.5Z" fill="black"/>
<path fill-rule="evenodd" clip-rule="evenodd" d="M93.75 93.75H46.875V140.625H93.75V93.75Z" fill="black"/>
<path fill-rule="evenodd" clip-rule="evenodd" d="M93.75 281.25H46.875V328.125H93.75V281.25Z" fill="black"/>
<path fill-rule="evenodd" clip-rule="evenodd" d="M281.25 93.75H234.375V140.625H281.25V93.75Z" fill="black"/>
<path fill-rule="evenodd" clip-rule="evenodd" d="M281.25 281.25H234.375V328.125H281.25V281.25Z" fill="black"/>
<path fill-rule="evenodd" clip-rule="evenodd" d="M187.5 0H140.625V46.875H187.5V0Z" fill="black"/>
<path fill-rule="evenodd" clip-rule="evenodd" d="M187.5 187.5H140.625V234.375H187.5V187.5Z" fill="black"/>
<path fill-rule="evenodd" clip-rule="evenodd" d="M375 0H328.125V46.875H375V0Z" fill="black"/>
<path fill-rule="evenodd" clip-rule="evenodd" d="M375 187.5H328.125V234.375H375V187.5Z" fill="black"/>
<path fill-rule="evenodd" clip-rule="evenodd" d="M187.5 93.75H140.625V140.625H187.5V93.75Z" fill="black"/>
<path fill-rule="evenodd" clip-rule="evenodd" d="M187.5 281.25H140.625V328.125H187.5V281.25Z" fill="black"/>
<path fill-rule="evenodd" clip-rule="evenodd" d="M375 93.75H328.125V140.625H375V93.75Z" fill="black"/>
<path fill-rule="evenodd" clip-rule="evenodd" d="M375 281.25H328.125V328.125H375V281.25Z" fill="black"/>
<path fill-rule="evenodd" clip-rule="evenodd" d="M0 46.875H46.875V93.75H0V46.875Z" fill="black"/>
<path fill-rule="evenodd" clip-rule="evenodd" d="M0 234.375H46.875V281.25H0V234.375Z" fill="black"/>
<path fill-rule="evenodd" clip-rule="evenodd" d="M187.5 46.875H234.375V93.75H187.5V46.875Z" fill="black"/>
<path fill-rule="evenodd" clip-rule="evenodd" d="M187.5 234.375H234.375V281.25H187.5V234.375Z" fill="black"/>
<path fill-rule="evenodd" clip-rule="evenodd" d="M0 140.625H46.875V187.5H0V140.625Z" fill="black"/>
<path fill-rule="evenodd" clip-rule="evenodd" d="M0 328.125H46.875V375H0V328.125Z" fill="black"/>
<path fill-rule="evenodd" clip-rule="evenodd" d="M187.5 140.625H234.375V187.5H187.5V140.625Z" fill="black"/>
<path fill-rule="evenodd" clip-rule="evenodd" d="M187.5 328.125H234.375V375H187.5V328.125Z" fill="black"/>
<path fill-rule="evenodd" clip-rule="evenodd" d="M93.75 46.875H140.625V93.75H93.75V46.875Z" fill="black"/>
<path fill-rule="evenodd" clip-rule="evenodd" d="M93.75 234.375H140.625V281.25H93.75V234.375Z" fill="black"/>
<path fill-rule="evenodd" clip-rule="evenodd" d="M281.25 46.875H328.125V93.75H281.25V46.875Z" fill="black"/>
<path fill-rule="evenodd" clip-rule="evenodd" d="M281.25 234.375H328.125V281.25H281.25V234.375Z" fill="black"/>
<path fill-rule="evenodd" clip-rule="evenodd" d="M93.75 140.625H140.625V187.5H93.75V140.625Z" fill="black"/>
<path fill-rule="evenodd" clip-rule="evenodd" d="M93.75 328.125H140.625V375H93.75V328.125Z" fill="black"/>
<path fill-rule="evenodd" clip-rule="evenodd" d="M281.25 140.625H328.125V187.5H281.25V140.625Z" fill="black"/>
<path fill-rule="evenodd" clip-rule="evenodd" d="M281.25 328.125H328.125V375H281.25V328.125Z" fill="black"/>
<path d="M0 46.875V47.375H46.875V46.875V46.375H0V46.875ZM46.875 46.875H47.375V0H46.875H46.375V46.875H46.875ZM46.875 187.5V187H0V187.5V188H46.875V187.5ZM0 234.375V234.875H46.875V234.375V233.875H0V234.375ZM46.875 234.375H47.375V187.5H46.875H46.375V234.375H46.875ZM187.5 0H187V46.875H187.5H188V0H187.5ZM187.5 46.875V47.375H234.375V46.875V46.375H187.5V46.875ZM234.375 46.875H234.875V0H234.375H233.875V46.875H234.375ZM234.375 187.5V187H187.5V187.5V188H234.375V187.5ZM187.5 187.5H187V234.375H187.5H188V187.5H187.5ZM187.5 234.375V234.875H234.375V234.375V233.875H187.5V234.375ZM234.375 234.375H234.875V187.5H234.375H233.875V234.375H234.375ZM46.875 93.75V93.25H0V93.75V94.25H46.875V93.75ZM0 140.625V141.125H46.875V140.625V140.125H0V140.625ZM46.875 140.625H47.375V93.75H46.875H46.375V140.625H46.875ZM46.875 281.25V280.75H0V281.25V281.75H46.875V281.25ZM0 328.125V328.625H46.875V328.125V327.625H0V328.125ZM46.875 328.125H47.375V281.25H46.875H46.375V328.125H46.875ZM234.375 93.75V93.25H187.5V93.75V94.25H234.375V93.75ZM187.5 93.75H187V140.625H187.5H188V93.75H187.5ZM187.5 140.625V141.125H234.375V140.625V140.125H187.5V140.625ZM234.375 140.625H234.875V93.75H234.375H233.875V140.625H234.375ZM234.375 281.25V280.75H187.5V281.25V281.75H234.375V281.25ZM187.5 281.25H187V328.125H187.5H188V281.25H187.5ZM187.5 328.125V328.625H234.375V328.125V327.625H187.5V328.125ZM234.375 328.125H234.875V281.25H234.375H233.875V328.125H234.375ZM93.75 0H93.25V46.875H93.75H94.25V0H93.75ZM93.75 46.875V47.375H140.625V46.875V46.375H93.75V46.875ZM140.625 46.875H141.125V0H140.625H140.125V46.875H140.625ZM140.625 187.5V187H93.75V187.5V188H140.625V187.5ZM93.75 187.5H93.25V234.375H93.75H94.25V187.5H93.75ZM93.75 234.375V234.875H140.625V234.375V233.875H93.75V234.375ZM140.625 234.375H141.125V187.5H140.625H140.125V234.375H140.625ZM281.25 0H280.75V46.875H281.25H281.75V0H281.25ZM281.25 46.875V47.375H328.125V46.875V46.375H281.25V46.875ZM328.125 46.875H328.625V0H328.125H327.625V46.875H328.125ZM328.125 187.5V187H281.25V187.5V188H328.125V187.5ZM281.25 187.5H280.75V234.375H281.25H281.75V187.5H281.25ZM281.25 234.375V234.875H328.125V234.375V233.875H281.25V234.375ZM328.125 234.375H328.625V187.5H328.125H327.625V234.375H328.125ZM140.625 93.75V93.25H93.75V93.75V94.25H140.625V93.75ZM93.75 93.75H93.25V140.625H93.75H94.25V93.75H93.75ZM93.75 140.625V141.125H140.625V140.625V140.125H93.75V140.625ZM140.625 140.625H141.125V93.75H140.625H140.125V140.625H140.625ZM140.625 281.25V280.75H93.75V281.25V281.75H140.625V281.25ZM93.75 281.25H93.25V328.125H93.75H94.25V281.25H93.75ZM93.75 328.125V328.625H140.625V328.125V327.625H93.75V328.125ZM140.625 328.125H141.125V281.25H140.625H140.125V328.125H140.625ZM328.125 93.75V93.25H281.25V93.75V94.25H328.125V93.75ZM281.25 93.75H280.75V140.625H281.25H281.75V93.75H281.25ZM281.25 140.625V141.125H328.125V140.625V140.125H281.25V140.625ZM328.125 140.625H328.625V93.75H328.125H327.625V140.625H328.125ZM328.125 281.25V280.75H281.25V281.25V281.75H328.125V281.25ZM281.25 281.25H280.75V328.125H281.25H281.75V281.25H281.25ZM281.25 328.125V328.625H328.125V328.125V327.625H281.25V328.125ZM328.125 328.125H328.625V281.25H328.125H327.625V328.125H328.125ZM46.875 46.875V47.375H93.75V46.875V46.375H46.875V46.875ZM93.75 46.875H93.25V93.75H93.75H94.25V46.875H93.75ZM93.75 93.75V93.25H46.875V93.75V94.25H93.75V93.75ZM46.875 93.75H47.375V46.875H46.875H46.375V93.75H46.875ZM46.875 234.375V234.875H93.75V234.375V233.875H46.875V234.375ZM93.75 234.375H93.25V281.25H93.75H94.25V234.375H93.75ZM93.75 281.25V280.75H46.875V281.25V281.75H93.75V281.25ZM46.875 281.25H47.375V234.375H46.875H46.375V281.25H46.875ZM234.375 46.875V47.375H281.25V46.875V46.375H234.375V46.875ZM281.25 46.875H280.75V93.75H281.25H281.75V46.875H281.25ZM281.25 93.75V93.25H234.375V93.75V94.25H281.25V93.75ZM234.375 93.75H234.875V46.875H234.375H233.875V93.75H234.375ZM234.375 234.375V234.875H281.25V234.375V233.875H234.375V234.375ZM281.25 234.375H280.75V281.25H281.25H281.75V234.375H281.25ZM281.25 281.25V280.75H234.375V281.25V281.75H281.25V281.25ZM234.375 281.25H234.875V234.375H234.375H233.875V281.25H234.375ZM46.875 140.625V141.125H93.75V140.625V140.125H46.875V140.625ZM93.75 140.625H93.25V187.5H93.75H94.25V140.625H93.75ZM93.75 187.5V187H46.875V187.5V188H93.75V187.5ZM46.875 187.5H47.375V140.625H46.875H46.375V187.5H46.875ZM46.875 328.125V328.625H93.75V328.125V327.625H46.875V328.125ZM93.75 328.125H93.25V375H93.75H94.25V328.125H93.75ZM46.875 375H47.375V328.125H46.875H46.375V375H46.875ZM234.375 140.625V141.125H281.25V140.625V140.125H234.375V140.625ZM281.25 140.625H280.75V187.5H281.25H281.75V140.625H281.25ZM281.25 187.5V187H234.375V187.5V188H281.25V187.5ZM234.375 187.5H234.875V140.625H234.375H233.875V187.5H234.375ZM234.375 328.125V328.625H281.25V328.125V327.625H234.375V328.125ZM281.25 328.125H280.75V375H281.25H281.75V328.125H281.25ZM234.375 375H234.875V328.125H234.375H233.875V375H234.375ZM140.625 46.875V47.375H187.5V46.875V46.375H140.625V46.875ZM187.5 46.875H187V93.75H187.5H188V46.875H187.5ZM187.5 93.75V93.25H140.625V93.75V94.25H187.5V93.75ZM140.625 93.75H141.125V46.875H140.625H140.125V93.75H140.625ZM140.625 234.375V234.875H187.5V234.375V233.875H140.625V234.375ZM187.5 234.375H187V281.25H187.5H188V234.375H187.5ZM187.5 281.25V280.75H140.625V281.25V281.75H187.5V281.25ZM140.625 281.25H141.125V234.375H140.625H140.125V281.25H140.625ZM328.125 46.875V47.375H375V46.875V46.375H328.125V46.875ZM375 93.75V93.25H328.125V93.75V94.25H375V93.75ZM328.125 93.75H328.625V46.875H328.125H327.625V93.75H328.125ZM328.125 234.375V234.875H375V234.375V233.875H328.125V234.375ZM375 281.25V280.75H328.125V281.25V281.75H375V281.25ZM328.125 281.25H328.625V234.375H328.125H327.625V281.25H328.125ZM140.625 140.625V141.125H187.5V140.625V140.125H140.625V140.625ZM187.5 140.625H187V187.5H187.5H188V140.625H187.5ZM187.5 187.5V187H140.625V187.5V188H187.5V187.5ZM140.625 187.5H141.125V140.625H140.625H140.125V187.5H140.625ZM140.625 328.125V328.625H187.5V328.125V327.625H140.625V328.125ZM187.5 328.125H187V375H187.5H188V328.125H187.5ZM140.625 375H141.125V328.125H140.625H140.125V375H140.625ZM328.125 140.625V141.125H375V140.625V140.125H328.125V140.625ZM375 187.5V187H328.125V187.5V188H375V187.5ZM328.125 187.5H328.625V140.625H328.125H327.625V187.5H328.125ZM328.125 328.125V328.625H375V328.125V327.625H328.125V328.125ZM328.125 375H328.625V328.125H328.125H327.625V375H328.125ZM0 0V-1H-1V0H0ZM375 375V376H376V375H375ZM375 0H376V-1H375V0ZM0 375H-1V376H0V375ZM46.875 0V-1H0V0V1H46.875V0ZM0 0H-1V46.875H0H1V0H0ZM0 187.5H-1V234.375H0H1V187.5H0ZM234.375 0V-1H187.5V0V1H234.375V0ZM0 93.75H-1V140.625H0H1V93.75H0ZM0 281.25H-1V328.125H0H1V281.25H0ZM140.625 0V-1H93.75V0V1H140.625V0ZM328.125 0V-1H281.25V0V1H328.125V0ZM93.75 375V374H46.875V375V376H93.75V375ZM281.25 375V374H234.375V375V376H281.25V375ZM375 46.875H374V93.75H375H376V46.875H375ZM375 234.375H374V281.25H375H376V234.375H375ZM187.5 375V374H140.625V375V376H187.5V375ZM375 140.625H374V187.5H375H376V140.625H375ZM375 328.125H374V375H375H376V328.125H375ZM375 375V374H328.125V375V376H375V375ZM93.75 0V-1H46.875V0V1H93.75V0ZM281.25 0V-1H234.375V0V1H281.25V0ZM187.5 0V-1H140.625V0V1H187.5V0ZM375 0V-1H328.125V0V1H375V0ZM375 46.875H376V0H375H374V46.875H375ZM375 234.375H376V187.5H375H374V234.375H375ZM375 140.625H376V93.75H375H374V140.625H375ZM375 328.125H376V281.25H375H374V328.125H375ZM0 93.75H1V46.875H0H-1V93.75H0ZM0 281.25H1V234.375H0H-1V281.25H0ZM0 187.5H1V140.625H0H-1V187.5H0ZM46.875 375V374H0V375V376H46.875V375ZM0 375H1V328.125H0H-1V375H0ZM234.375 375V374H187.5V375V376H234.375V375ZM140.625 375V374H93.75V375V376H140.625V375ZM328.125 375V374H281.25V375V376H328.125V375Z" fill="black" mask="url(#path-1-inside-1_10524_9222)"/>
</g>
<g filter="url(#filter1_d_10524_9222)">
<rect width="375" height="375" fill="url(#paint0_linear_10524_9222)" shape-rendering="crispEdges"/>
<rect x="0.5" y="0.5" width="374" height="374" stroke="black" shape-rendering="crispEdges"/>
</g>
</g>
<defs>
<filter id="filter0_d_10524_9222" x="-4" y="0" width="383" height="383" filterUnits="userSpaceOnUse" color-interpolation-filters="sRGB">
<feFlood flood-opacity="0" result="BackgroundImageFix"/>
<feColorMatrix in="SourceAlpha" type="matrix" values="0 0 0 0 0 0 0 0 0 0 0 0 0 0 0 0 0 0 127 0" result="hardAlpha"/>
<feOffset dy="4"/>
<feGaussianBlur stdDeviation="2"/>
<feComposite in2="hardAlpha" operator="out"/>
<feColorMatrix type="matrix" values="0 0 0 0 0 0 0 0 0 0 0 0 0 0 0 0 0 0 0.25 0"/>
<feBlend mode="normal" in2="BackgroundImageFix" result="effect1_dropShadow_10524_9222"/>
<feBlend mode="normal" in="SourceGraphic" in2="effect1_dropShadow_10524_9222" result="shape"/>
</filter>
<filter id="filter1_d_10524_9222" x="-4" y="0" width="383" height="383" filterUnits="userSpaceOnUse" color-interpolation-filters="sRGB">
<feFlood flood-opacity="0" result="BackgroundImageFix"/>
<feColorMatrix in="SourceAlpha" type="matrix" values="0 0 0 0 0 0 0 0 0 0 0 0 0 0 0 0 0 0 127 0" result="hardAlpha"/>
<feOffset dy="4"/>
<feGaussianBlur stdDeviation="2"/>
<feComposite in2="hardAlpha" operator="out"/>
<feColorMatrix type="matrix" values="0 0 0 0 0 0 0 0 0 0 0 0 0 0 0 0 0 0 0.25 0"/>
<feBlend mode="normal" in2="BackgroundImageFix" result="effect1_dropShadow_10524_9222"/>
<feBlend mode="normal" in="SourceGraphic" in2="effect1_dropShadow_10524_9222" result="shape"/>
</filter>
<linearGradient id="paint0_linear_10524_9222" x1="187.5" y1="0" x2="187.5" y2="375" gradientUnits="userSpaceOnUse">
<stop stop-opacity="0"/>
<stop offset="1"/>
</linearGradient>
<clipPath id="clip0_10524_9222">
<rect width="375" height="375" fill="white"/>
</clipPath>
</defs>
</svg>
